<svg width="71.002319" height="71.345337" viewBox="0 0 71.0023 71.3453" fill="none" xmlns="http://www.w3.org/2000/svg" xmlns:xlink="http://www.w3.org/1999/xlink">
	<desc>
			Created with Pixso.
	</desc>
	<defs/>
	<path id="Vector" d="M58.6 0.84C59.34 1.24 59.58 1.86 59.57 2.7C59.54 8.26 59.56 13.81 59.56 19.37C59.56 19.56 59.57 19.74 59.55 19.92C59.48 20.67 58.92 21.2 58.2 21.21C57.46 21.22 56.87 20.66 56.83 19.88C56.8 19.16 56.82 18.42 56.82 17.7C56.82 15.49 56.82 13.28 56.82 11.01L14.22 11.01L14.22 14.77L15.03 14.77C24.96 14.77 34.9 14.77 44.83 14.77C46.29 14.77 46.71 15.18 46.71 16.63C46.71 22.87 46.71 29.12 46.71 35.36C46.71 36.77 46.27 37.21 44.88 37.21C34.94 37.21 25.01 37.21 15.08 37.21C14.81 37.21 14.54 37.21 14.22 37.21L14.22 68.06L56.79 68.06L56.79 63.48L55.9 63.48C46.01 63.48 36.13 63.48 26.24 63.48C24.65 63.48 24.29 63.11 24.29 61.5C24.29 55.28 24.29 49.06 24.29 42.84C24.29 41.5 24.74 41.04 26.1 41.04C36.04 41.04 45.97 41.04 55.9 41.04L56.82 41.04C56.82 40.78 56.82 40.54 56.82 40.3C56.82 37.65 56.82 35.01 56.83 32.37C56.83 31.55 57.18 31.04 57.83 30.85C58.73 30.58 59.55 31.26 59.55 32.32C59.57 34.96 59.56 37.6 59.56 40.24C59.56 40.49 59.56 40.73 59.56 41.05C60.25 41.05 60.89 41.05 61.52 41.05C63.89 41.05 66.26 41.07 68.63 41.03C69.46 41.02 70.08 41.27 70.5 41.99L70.5 62.5C70.13 63.27 69.51 63.5 68.67 63.5C65.9 63.46 63.13 63.48 60.36 63.48C60.12 63.48 59.87 63.48 59.56 63.48C59.56 65.37 59.53 67.18 59.57 68.99C59.6 69.83 59.34 70.44 58.6 70.84L12.39 70.84C11.65 70.44 11.41 69.82 11.42 68.98C11.44 58.67 11.43 48.35 11.43 38.03L11.43 37.21C8.28 37.21 5.23 37.21 2.18 37.21C0.97 37.21 0.5 36.72 0.5 35.5C0.49 29.14 0.49 22.79 0.5 16.44C0.5 15.26 0.98 14.78 2.16 14.78C4.71 14.77 7.26 14.78 9.81 14.78C10.33 14.78 10.85 14.78 11.43 14.78L11.43 13.98C11.43 10.22 11.45 6.46 11.42 2.7C11.41 1.86 11.65 1.25 12.39 0.84L58.6 0.84L58.6 0.84ZM3.26 34.42L43.92 34.42L43.92 17.54L3.26 17.54L3.26 34.42ZM27.05 60.69L67.7 60.69L67.7 43.82L27.05 43.82L27.05 60.69ZM45.99 3.61L14.21 3.61L14.21 8.17L45.99 8.17L45.99 3.61ZM56.79 3.62L48.81 3.62L48.81 8.18L56.79 8.18L56.79 3.62Z" fill="#FD6F00" fill-opacity="1.000000" fill-rule="nonzero"/>
	<path id="Vector" d="M60.07 2.7L60.07 2.7Q60.08 1.67 59.58 1.02Q59.29 0.65 58.84 0.4L58.1 0L58.1 0.34L12.26 0.34L12.15 0.4Q11.68 0.66 11.39 1.04Q10.91 1.69 10.92 2.7L10.94 8.32L10.93 13.98L10.93 14.28L9.81 14.28L6 14.28L2.16 14.28Q1.07 14.28 0.53 14.82Q0 15.36 0 16.44L0 18.49L0 35.5Q0 36.61 0.55 37.17Q1.1 37.71 2.18 37.71L10.93 37.71L10.93 38.03L10.93 51.99L10.92 68.98Q10.91 70.01 11.41 70.66Q11.7 71.03 12.15 71.28L12.26 71.34L58.73 71.34L58.84 71.28Q59.36 70.99 59.66 70.56Q60.1 69.93 60.07 68.98Q60.04 67.7 60.05 65.12Q60.06 64.45 60.06 63.98L60.36 63.98Q61.13 63.98 62.68 63.98Q66.67 63.97 68.67 64Q69.7 64.01 70.33 63.51Q70.72 63.2 70.95 62.72L71 62.61L71 41.86L70.93 41.75Q70.66 41.26 70.25 40.97Q69.6 40.51 68.62 40.53Q66.92 40.56 63.51 40.55Q62.18 40.55 61.52 40.55L60.06 40.55L60.06 40.24L60.05 32.31Q60.05 31.65 59.75 31.16Q59.59 30.91 59.35 30.7Q59.01 30.41 58.62 30.32Q58.18 30.22 57.69 30.37Q57.12 30.53 56.79 30.91Q56.33 31.44 56.33 32.37L56.32 40.28L56.32 40.54L26.1 40.54Q24.88 40.54 24.33 41.08Q23.79 41.62 23.79 42.84L23.79 61.5Q23.79 62.75 24.41 63.37Q25.03 63.98 26.24 63.98L56.29 63.98L56.29 67.56L14.72 67.56L14.72 37.71L44.88 37.71Q46.13 37.71 46.67 37.16Q47.21 36.62 47.21 35.36L47.21 16.63Q47.21 15.33 46.67 14.8Q46.13 14.27 44.83 14.27L14.72 14.27L14.72 11.51L56.32 11.51L56.32 17.7Q56.32 17.9 56.32 18.31Q56.31 19.37 56.33 19.9Q56.37 20.83 56.86 21.28Q57.32 21.72 58.21 21.71Q59.02 21.7 59.48 21.29Q59.96 20.86 60.05 19.97Q60.06 19.81 60.06 19.5Q60.06 19.42 60.06 19.37L60.05 11.05L60.07 2.7ZM56.82 11.51L56.82 17.7C56.82 17.9 56.82 18.11 56.82 18.31C56.81 18.84 56.81 19.36 56.83 19.88C56.87 20.66 57.46 21.22 58.2 21.21C58.92 21.2 59.48 20.67 59.55 19.92C59.56 19.79 59.56 19.65 59.56 19.51C59.56 19.47 59.56 19.42 59.56 19.37C59.56 18.03 59.56 16.69 59.56 15.35L59.56 15.35C59.55 11.13 59.55 6.91 59.57 2.7C59.57 2.09 59.45 1.59 59.1 1.22C58.97 1.07 58.8 0.95 58.6 0.84L58.6 0.84L12.39 0.84C11.65 1.25 11.41 1.86 11.42 2.7C11.44 5.45 11.44 8.2 11.43 10.95C11.43 11.96 11.43 12.97 11.43 13.98L11.43 14.78L9.81 14.78C8.96 14.78 8.11 14.78 7.26 14.78L7.26 14.78C5.56 14.78 3.86 14.78 2.16 14.78C0.98 14.78 0.5 15.26 0.5 16.44Q0.5 18.32 0.49 20.2Q0.49 27.85 0.5 35.5C0.5 36.72 0.97 37.21 2.18 37.21C4.21 37.21 6.23 37.21 8.28 37.21L8.29 37.21C9.16 37.21 10.04 37.21 10.93 37.21L11.43 37.21L11.43 37.71L11.43 38.03C11.43 40.09 11.43 42.16 11.43 44.22C11.43 52.47 11.43 60.73 11.42 68.98C11.41 69.82 11.65 70.44 12.39 70.84L58.6 70.84C59.34 70.44 59.6 69.83 59.57 68.99C59.54 67.71 59.55 66.43 59.55 65.12C59.56 64.58 59.56 64.03 59.56 63.48L60.36 63.48C61.13 63.48 61.9 63.48 62.68 63.48C64.68 63.48 66.67 63.47 68.67 63.5C69.51 63.5 70.13 63.27 70.5 62.5L70.5 41.99C70.08 41.27 69.46 41.02 68.63 41.03C66.92 41.06 65.21 41.06 63.51 41.05C62.85 41.05 62.18 41.05 61.52 41.05L60.06 41.05L59.56 41.05L59.56 40.55L59.56 40.24C59.56 39.49 59.56 38.74 59.56 37.98C59.56 36.09 59.56 34.2 59.55 32.32C59.55 31.26 58.73 30.58 57.83 30.85C57.18 31.04 56.83 31.55 56.83 32.37C56.82 34.25 56.82 36.14 56.82 38.03L56.82 38.03C56.82 38.79 56.82 39.54 56.82 40.3L56.82 41.04L26.1 41.04C24.74 41.04 24.29 41.5 24.29 42.84L24.29 61.5C24.29 63.11 24.65 63.48 26.24 63.48L56.79 63.48L56.79 68.06L14.22 68.06L14.22 37.21L44.88 37.21C46.27 37.21 46.71 36.77 46.71 35.36L46.71 16.63C46.71 15.18 46.29 14.77 44.83 14.77L14.72 14.77L14.22 14.77L14.22 11.01L56.82 11.01L56.82 11.51ZM14.71 3.61L14.21 3.61L14.21 8.17L45.99 8.17L45.99 3.61L14.71 3.61ZM45.49 4.11L14.71 4.11L14.71 7.67L45.49 7.67L45.49 4.11ZM49.31 3.62L48.81 3.62L48.81 8.18L56.79 8.18L56.79 3.62L49.31 3.62ZM49.31 4.12L49.31 7.68L56.29 7.68L56.29 4.12L49.31 4.12ZM43.42 34.42L43.92 34.42L43.92 17.54L3.26 17.54L3.26 34.42L43.42 34.42ZM43.42 33.92L3.76 33.92L3.76 18.04L43.42 18.04L43.42 33.92ZM67.2 44.32L67.2 60.19L27.55 60.19L27.55 44.32L67.2 44.32ZM67.7 44.32L67.7 60.69L27.05 60.69L27.05 43.82L67.7 43.82L67.7 44.32Z" fill="#FD6F00" fill-opacity="1.000000" fill-rule="evenodd"/>
	<path id="Vector" d="M59.55 25.95C59.57 26.7 58.94 27.35 58.19 27.35C57.47 27.35 56.85 26.74 56.83 26.02C56.81 25.29 57.39 24.66 58.12 24.63C58.88 24.59 59.53 25.19 59.55 25.95Z" fill="#FD6F00" fill-opacity="1.000000" fill-rule="nonzero"/>
	<path id="Vector" d="M57.79 28.31Q57.99 28.35 58.19 28.35Q58.4 28.35 58.61 28.31Q58.87 28.26 59.12 28.15Q59.31 28.07 59.47 27.96Q59.69 27.82 59.87 27.63Q60.06 27.44 60.19 27.22Q60.3 27.05 60.38 26.87Q60.48 26.61 60.52 26.35Q60.56 26.14 60.55 25.93Q60.55 25.69 60.49 25.45Q60.44 25.22 60.33 25Q60.24 24.8 60.12 24.63Q59.98 24.43 59.79 24.26Q59.61 24.09 59.4 23.96Q59.22 23.85 59.02 23.78Q58.78 23.69 58.54 23.65Q58.31 23.62 58.08 23.63Q57.85 23.64 57.63 23.69Q57.4 23.75 57.18 23.85Q56.99 23.94 56.83 24.06Q56.63 24.2 56.46 24.38Q56.29 24.56 56.17 24.77Q56.06 24.94 55.99 25.13Q55.9 25.36 55.86 25.6Q55.82 25.82 55.83 26.04Q55.83 26.24 55.87 26.44Q55.92 26.7 56.04 26.94Q56.12 27.12 56.22 27.28Q56.36 27.49 56.54 27.67Q56.73 27.85 56.95 27.99Q57.11 28.09 57.28 28.16Q57.53 28.27 57.79 28.31ZM59.55 25.95C59.57 26.7 58.94 27.35 58.19 27.35C57.47 27.35 56.85 26.74 56.83 26.02C56.81 25.29 57.39 24.66 58.12 24.63C58.88 24.59 59.53 25.19 59.55 25.95Z" fill="#FD6F00" fill-opacity="1.000000" fill-rule="evenodd"/>
	<path id="Vector" d="M13.2 21.34C14.73 21.34 16.25 21.33 17.78 21.34C18.86 21.34 19.36 21.85 19.36 22.93C19.37 24.96 19.37 26.98 19.36 29.01C19.36 30.12 18.85 30.63 17.72 30.63C14.71 30.63 11.71 30.63 8.71 30.63C7.58 30.63 7.06 30.12 7.06 29.02C7.05 26.99 7.05 24.97 7.06 22.94C7.06 21.83 7.56 21.34 8.7 21.34C10.2 21.33 11.7 21.34 13.2 21.34ZM16.59 27.87L16.59 24.11L9.84 24.11L9.84 27.87L16.59 27.87Z" fill="#000000" fill-opacity="1.000000" fill-rule="nonzero"/>
	<path id="Vector" d="M31.68 24.07C29.49 24.07 27.31 24.07 25.13 24.07C24.94 24.07 24.76 24.08 24.58 24.06C23.76 24.01 23.18 23.43 23.2 22.67C23.21 21.91 23.78 21.35 24.63 21.34C25.88 21.32 27.13 21.34 28.38 21.34C31.59 21.34 34.79 21.34 38 21.34C39.5 21.34 40.15 21.76 40.14 22.72C40.12 23.65 39.47 24.07 38.03 24.07C35.91 24.07 33.8 24.07 31.68 24.07Z" fill="#000000" fill-opacity="1.000000" fill-rule="nonzero"/>
	<path id="Vector" d="M31.7 27.9C34.04 27.9 36.39 27.89 38.73 27.91C39.56 27.91 40.14 28.49 40.14 29.26C40.14 29.99 39.58 30.56 38.8 30.63C38.62 30.64 38.44 30.63 38.25 30.63C33.86 30.63 29.47 30.63 25.08 30.63C24.94 30.63 24.81 30.64 24.67 30.63C23.8 30.6 23.2 30.04 23.2 29.26C23.2 28.47 23.79 27.91 24.67 27.91C27.01 27.89 29.35 27.9 31.7 27.9L31.7 27.9Z" fill="#000000" fill-opacity="1.000000" fill-rule="nonzero"/>
	<path id="Vector" d="M36.97 56.9C35.45 56.9 33.93 56.91 32.4 56.9C31.36 56.89 30.85 56.38 30.85 55.34C30.84 53.29 30.84 51.25 30.85 49.2C30.85 48.13 31.37 47.61 32.45 47.61C35.48 47.6 38.5 47.6 41.53 47.61C42.64 47.61 43.15 48.13 43.15 49.25C43.15 51.27 43.16 53.29 43.15 55.32C43.15 56.39 42.63 56.89 41.55 56.9C40.02 56.91 38.5 56.9 36.97 56.9L36.97 56.9ZM33.61 54.12L40.36 54.12L40.36 50.38L33.61 50.38L33.61 54.12Z" fill="#000000" fill-opacity="1.000000" fill-rule="nonzero"/>
	<path id="Vector" d="M55.45 50.34C53.17 50.34 50.9 50.34 48.63 50.34C47.61 50.34 47 49.84 46.99 49.01C46.97 48.17 47.61 47.61 48.64 47.61C53.19 47.61 57.74 47.61 62.29 47.61C63.29 47.61 63.91 48.13 63.93 48.95C63.95 49.8 63.31 50.34 62.27 50.34C60 50.34 57.72 50.34 55.45 50.34L55.45 50.34Z" fill="#000000" fill-opacity="1.000000" fill-rule="nonzero"/>
	<path id="Vector" d="M55.46 56.9C53.19 56.9 50.91 56.9 48.64 56.9C47.6 56.9 46.97 56.37 46.98 55.52C47 54.7 47.63 54.17 48.62 54.17C53.2 54.17 57.77 54.17 62.34 54.17C63.24 54.17 63.82 54.63 63.92 55.36C64.01 56 63.6 56.66 62.96 56.84C62.73 56.9 62.47 56.9 62.22 56.9C59.97 56.9 57.71 56.9 55.46 56.9L55.46 56.9Z" fill="#000000" fill-opacity="1.000000" fill-rule="nonzero"/>
</svg>
