<svg width="49.000000" height="84.000000" viewBox="0 0 49 84" fill="none" xmlns="http://www.w3.org/2000/svg" xmlns:xlink="http://www.w3.org/1999/xlink">
	<desc>
			Created with Pixso.
	</desc>
	<defs/>
	<path id="Vector" d="M0.99 41.73C0.99 30.23 0.99 18.72 0.99 7.21C0.99 3.05 3.53 0.52 7.69 0.52C18.9 0.52 30.1 0.52 41.3 0.52C45.46 0.52 47.99 3.05 47.99 7.21C47.99 30.26 47.99 53.3 47.99 76.35C47.99 80.45 45.45 82.99 41.34 82.99C30.11 82.99 18.88 82.99 7.65 82.99C3.55 82.99 1 80.44 1 76.34C1 64.8 1 53.27 1 41.73L0.99 41.73ZM46.08 67.03L46.08 12.26L45.02 12.26C35.7 12.26 26.38 12.26 17.06 12.26C16.78 12.26 16.42 12.35 16.23 12.22C15.88 11.98 15.45 11.64 15.36 11.27C15.23 10.72 15.66 10.35 16.24 10.26C16.51 10.22 16.8 10.25 17.08 10.25C26.43 10.25 35.78 10.25 45.13 10.25L46.14 10.25C46.14 9.15 46.14 8.18 46.14 7.21C46.14 4.22 44.46 2.54 41.46 2.54C30.2 2.54 18.94 2.54 7.68 2.54C7.49 2.54 7.29 2.53 7.09 2.54C5.19 2.61 3.46 3.88 3.18 5.74C2.97 7.2 3.14 8.71 3.14 10.25C5.08 10.25 7.01 10.26 8.95 10.24C9.65 10.24 10.18 10.45 10.25 11.22C10.3 11.87 9.8 12.25 8.92 12.26C8.05 12.26 7.18 12.26 6.31 12.26C5.23 12.26 4.14 12.26 3.06 12.26L3.06 67.03L46.09 67.03L46.08 67.03ZM46.13 69.14L3.02 69.14C3.02 71.54 3.02 73.89 3.02 76.23C3.02 79.33 4.67 80.98 7.79 80.98C18.99 80.98 30.19 80.98 41.38 80.98C41.67 80.98 41.95 80.99 42.23 80.97C44.26 80.83 46.04 79.21 46.11 77.22C46.2 74.55 46.13 71.87 46.13 69.14L46.13 69.14Z" fill="#FD6F00" fill-opacity="1.000000" fill-rule="nonzero"/>
	<path id="Vector" d="M1.91 1.45Q-0.01 3.37 -0.01 7.21L-0.01 44.13L0 44.13L0 59.06L0 76.34Q0 80.16 1.91 82.08Q3.82 83.99 7.65 83.99L41.34 83.99Q45.17 83.99 47.09 82.07Q48.99 80.16 48.99 76.35L48.99 7.21Q48.99 3.37 47.07 1.45Q45.15 -0.48 41.3 -0.48L7.69 -0.48Q3.84 -0.48 1.91 1.45ZM1 41.73L1 76.34C1 80.44 3.55 82.99 7.65 82.99L41.34 82.99C45.45 82.99 47.99 80.45 47.99 76.35L47.99 7.21C47.99 3.05 45.46 0.52 41.3 0.52L7.69 0.52C3.53 0.52 0.99 3.05 0.99 7.21L0.99 41.73L1 41.73L1 41.73ZM46.08 66.03L46.08 13.26L46.08 12.26L17.06 12.26C16.97 12.26 16.88 12.27 16.79 12.27C16.58 12.29 16.36 12.31 16.23 12.22C15.88 11.98 15.45 11.64 15.36 11.27C15.23 10.72 15.66 10.35 16.24 10.26C16.44 10.23 16.64 10.24 16.85 10.24C16.92 10.25 17 10.25 17.08 10.25L46.14 10.25L46.14 9.25L46.14 7.21C46.14 4.22 44.46 2.54 41.46 2.54L7.68 2.54C7.63 2.54 7.59 2.54 7.54 2.54C7.39 2.54 7.24 2.53 7.09 2.54C5.19 2.61 3.46 3.88 3.18 5.74C3.03 6.75 3.07 7.78 3.11 8.83C3.12 9.3 3.14 9.77 3.14 10.25C3.69 10.25 4.25 10.25 4.8 10.25C6.18 10.25 7.56 10.25 8.95 10.24C9.65 10.24 10.18 10.45 10.25 11.22C10.3 11.87 9.8 12.25 8.92 12.26C8.34 12.26 7.76 12.26 7.18 12.26L7.18 12.26C6.89 12.26 6.6 12.26 6.31 12.26L3.06 12.26L3.06 13.26L3.06 66.03L3.06 67.03L46.09 67.03L46.08 67.03L46.08 66.03ZM45.08 66.03L45.08 13.26L17.06 13.26Q17.02 13.26 16.89 13.27Q16.1 13.34 15.67 13.05Q14.58 12.31 14.39 11.5Q14.28 11.01 14.4 10.6Q14.51 10.22 14.81 9.91Q14.91 9.8 15.03 9.71Q15.46 9.37 16.09 9.27Q16.38 9.23 16.87 9.24Q17.01 9.25 17.08 9.25L45.14 9.25L45.14 7.21Q45.14 5.38 44.23 4.46Q43.31 3.54 41.46 3.54L24.56 3.54L7.68 3.54Q7.63 3.54 7.53 3.54Q7.26 3.53 7.14 3.54Q5.59 3.6 4.84 4.4Q4.31 4.96 4.17 5.89Q4.04 6.8 4.11 8.79Q4.12 9.03 4.12 9.25L6.05 9.25L8.94 9.24Q10.14 9.24 10.72 9.83Q11.17 10.3 11.24 11.14Q11.29 11.69 11.09 12.12Q10.91 12.49 10.54 12.77Q9.93 13.25 8.93 13.26L7.62 13.26L6.31 13.26L4.06 13.26L4.06 66.03L45.08 66.03ZM4.02 69.14L3.02 69.14L3.02 76.23C3.02 79.33 4.67 80.98 7.79 80.98L41.38 80.98C41.45 80.98 41.51 80.98 41.57 80.98C41.79 80.98 42.01 80.98 42.23 80.97C44.26 80.83 46.04 79.21 46.11 77.22C46.17 75.36 46.16 73.49 46.14 71.6C46.14 70.78 46.13 69.96 46.13 69.14L4.02 69.14ZM45.13 70.14L4.02 70.14L4.02 76.23Q4.02 78.09 4.95 79.03Q5.89 79.98 7.79 79.98L41.38 79.98Q41.45 79.98 41.57 79.98Q41.98 79.98 42.16 79.97Q43.75 79.86 44.48 79.01Q45.07 78.34 45.11 77.19Q45.17 75.34 45.14 71.61Q45.14 70.77 45.13 70.14Z" fill="#FD6F00" fill-opacity="1.000000" fill-rule="evenodd"/>
	<path id="Vector" d="M24.6 15.61C29.66 15.61 34.71 15.61 39.76 15.61C40.96 15.61 41.25 15.9 41.25 17.08C41.25 26.27 41.25 35.46 41.25 44.65C41.25 45.83 40.96 46.11 39.75 46.11C29.65 46.11 19.54 46.11 9.44 46.11C8.18 46.11 7.9 45.84 7.9 44.6C7.9 35.44 7.9 26.28 7.9 17.12C7.9 15.88 8.18 15.61 9.45 15.61C14.5 15.61 19.55 15.61 24.6 15.61L24.6 15.61ZM23.09 30.86C18.68 26.87 14.38 22.96 9.99 18.98L9.99 42.75C14.4 38.75 18.71 34.84 23.09 30.86ZM39.21 18.95C34.78 22.97 30.45 26.89 26.08 30.86C30.47 34.85 34.79 38.76 39.21 42.78L39.21 18.95L39.21 18.95ZM11.56 17.66C16 21.68 20.28 25.57 24.59 29.48C28.94 25.52 33.21 21.64 37.6 17.66L11.56 17.66ZM24.58 32.25C20.22 36.21 15.95 40.09 11.57 44.06L37.6 44.06C33.2 40.07 28.92 36.19 24.58 32.25Z" fill="#000000" fill-opacity="1.000000" fill-rule="nonzero"/>
	<path id="Vector" d="M24.49 57.18C19.58 57.18 14.67 57.18 9.76 57.18C9.48 57.18 9.12 57.27 8.93 57.13C8.61 56.88 8.19 56.5 8.19 56.17C8.19 55.85 8.61 55.47 8.93 55.22C9.12 55.08 9.48 55.17 9.76 55.17C19.64 55.17 29.52 55.17 39.4 55.17C39.63 55.17 39.86 55.16 40.08 55.18C40.66 55.25 41.01 55.6 41.01 56.18C41.01 56.75 40.66 57.1 40.08 57.17C39.83 57.2 39.57 57.18 39.32 57.18C34.38 57.18 29.44 57.18 24.49 57.18L24.49 57.18Z" fill="#FD6F00" fill-opacity="1.000000" fill-rule="nonzero"/>
	<path id="Vector" d="M24.53 62.21C19.61 62.21 14.7 62.21 9.79 62.21C9.51 62.21 9.15 62.3 8.96 62.16C8.63 61.93 8.17 61.54 8.19 61.24C8.22 60.88 8.65 60.51 8.99 60.24C9.14 60.11 9.47 60.2 9.73 60.2C19.64 60.2 29.55 60.2 39.46 60.2C39.68 60.2 39.98 60.12 40.12 60.23C40.46 60.5 40.91 60.82 40.99 61.18C41.11 61.72 40.69 62.11 40.11 62.2C39.86 62.23 39.6 62.21 39.35 62.21C34.41 62.21 29.47 62.21 24.53 62.21L24.53 62.21Z" fill="#FD6F00" fill-opacity="1.000000" fill-rule="nonzero"/>
	<path id="Vector" d="M16.83 51.98C14.39 51.98 11.95 51.99 9.51 51.98C8.62 51.98 8.14 51.63 8.13 50.99C8.12 50.35 8.61 49.98 9.49 49.98C14.39 49.97 19.3 49.97 24.21 49.98C25.12 49.98 25.57 50.31 25.58 50.97C25.59 51.62 25.12 51.98 24.23 51.98C21.76 51.99 19.3 51.98 16.83 51.98Z" fill="#FD6F00" fill-opacity="1.000000" fill-rule="nonzero"/>
	<path id="Vector" d="M24.58 78.27C22.53 78.28 20.76 76.53 20.75 74.48C20.75 72.41 22.44 70.7 24.53 70.65C26.62 70.61 28.41 72.37 28.4 74.47C28.39 76.54 26.67 78.25 24.58 78.26L24.58 78.27ZM26.38 74.47C26.39 73.52 25.59 72.7 24.63 72.67C23.65 72.64 22.79 73.46 22.78 74.45C22.77 75.39 23.57 76.22 24.53 76.25C25.5 76.29 26.38 75.44 26.38 74.47L26.38 74.47Z" fill="#000000" fill-opacity="1.000000" fill-rule="nonzero"/>
</svg>
