<svg width="72.000000" height="82.000000" viewBox="0 0 72 82" fill="none" xmlns="http://www.w3.org/2000/svg" xmlns:xlink="http://www.w3.org/1999/xlink">
	<desc>
			Created with Pixso.
	</desc>
	<defs>
		<clipPath id="clip252_22">
			<rect id="Layer_1" width="72.000000" height="82.000000" fill="white" fill-opacity="0"/>
		</clipPath>
	</defs>
	<rect id="Layer_1" width="72.000000" height="82.000000" fill="#FFFFFF" fill-opacity="0"/>
	<g clip-path="url(#clip252_22)">
		<path id="Vector" d="M48.31 82L23.67 82C22.67 81.39 22.34 80.78 22.57 79.94C22.78 79.17 23.42 78.8 24.53 78.79C25.59 78.79 26.64 78.79 27.73 78.79C28.28 75.8 28.82 72.91 29.37 69.89C28.94 69.89 28.62 69.89 28.31 69.89C21.99 69.89 15.68 69.9 9.36 69.89C8.62 69.89 7.86 69.87 7.14 69.72C2.83 68.84 0.01 65.32 0 60.84C-0.01 49.74 -0.01 38.64 0 27.55C0 22.02 3.76 18.26 9.28 18.25C10.02 18.25 10.76 18.25 11.55 18.25C11.55 17.83 11.55 17.52 11.55 17.2C11.55 13.14 11.54 9.09 11.55 5.03C11.56 2.6 12.89 0.83 15.16 0.15C15.28 0.12 15.39 0.05 15.51 0C29.17 0 42.82 0 56.47 0C59.68 1.3 60.44 2.46 60.44 6C60.44 9.78 60.44 13.57 60.44 17.36C60.44 17.64 60.44 17.92 60.44 18.25C61.33 18.25 62.1 18.25 62.87 18.25C68.19 18.28 71.98 22.06 71.99 27.39C71.99 38.51 71.99 49.63 71.98 60.76C71.98 61.52 71.92 62.31 71.74 63.06C70.77 67.22 67.32 69.87 62.87 69.89C56.47 69.9 50.07 69.89 43.68 69.89C43.37 69.89 43.05 69.89 42.62 69.89C43.18 72.93 43.71 75.84 44.26 78.79C45.51 78.79 46.68 78.77 47.85 78.8C48.9 78.82 49.54 79.58 49.46 80.57C49.39 81.31 48.88 81.67 48.31 81.99L48.31 82ZM14.8 11.5L14.8 58.3L57.18 58.3L57.18 11.5L14.8 11.5ZM68.72 61.65L3.21 61.65C3.31 62.08 3.37 62.42 3.47 62.75C4.23 65.21 6.33 66.69 9.13 66.69C27.05 66.69 44.96 66.69 62.87 66.69C63.11 66.69 63.35 66.68 63.59 66.66C66.32 66.46 68.39 64.46 68.72 61.65ZM11.48 58.32L11.48 29.84L3.24 29.84L3.24 58.32L11.48 58.32ZM68.74 58.31L68.74 29.84L60.49 29.84L60.49 58.31L68.74 58.31ZM14.77 8.17L57.18 8.17C57.21 8.04 57.23 7.99 57.23 7.94C57.24 7.08 57.24 6.23 57.24 5.38C57.24 3.71 56.72 3.2 55.03 3.2C42.34 3.2 29.66 3.2 16.97 3.2C16.76 3.2 16.55 3.19 16.33 3.2C15.48 3.27 14.84 3.8 14.79 4.65C14.72 5.81 14.77 6.98 14.77 8.17ZM40.99 78.76C40.47 75.9 39.96 73.12 39.43 70.35C39.39 70.18 39.1 69.92 38.93 69.91C36.85 69.89 34.78 69.9 32.64 69.9C32.09 72.87 31.55 75.79 30.99 78.76L41 78.76L40.99 78.76ZM11.49 26.56L11.49 21.51C6.56 21.05 3.29 23.08 3.31 26.56L11.49 26.56ZM60.48 26.55L68.7 26.55C68.58 24.23 66.85 22.1 64.55 21.66C63.23 21.41 61.86 21.47 60.48 21.38L60.48 26.55L60.48 26.55Z" fill="#FD6F00" fill-opacity="1.000000" fill-rule="nonzero"/>
		<path id="Vector" d="M16.76 38.5C16.76 34.31 16.76 30.12 16.76 25.93C16.77 23.26 18.25 21.77 20.91 21.77C23.2 21.76 25.49 21.76 27.78 21.77C30.14 21.78 31.73 23.28 31.74 25.65C31.76 34.24 31.76 42.83 31.74 51.41C31.73 53.78 30.16 55.28 27.79 55.3C25.42 55.31 23.05 55.32 20.68 55.3C18.31 55.28 16.78 53.74 16.77 51.38C16.75 47.09 16.76 42.79 16.76 38.5ZM28.55 38.6C28.55 34.41 28.54 30.22 28.56 26.04C28.56 25.35 28.43 24.94 27.59 24.95C25.36 24.99 23.12 24.99 20.88 24.96C20.17 24.95 19.95 25.23 19.96 25.91C19.97 34.34 19.97 42.76 19.96 51.19C19.96 51.9 20.24 52.12 20.91 52.11C23.07 52.09 25.22 52.1 27.38 52.1C28.48 52.1 28.55 52.03 28.55 50.92C28.55 46.81 28.55 42.71 28.55 38.6L28.55 38.6Z" fill="#000000" fill-opacity="1.000000" fill-rule="nonzero"/>
		<path id="Vector" d="M44.78 21.77C46.91 21.77 49.05 21.76 51.18 21.77C53.49 21.78 55.06 23.3 55.09 25.61C55.12 28.3 55.12 31 55.09 33.69C55.06 35.97 53.56 37.52 51.27 37.54C46.92 37.59 42.58 37.59 38.24 37.54C35.89 37.52 34.4 35.91 34.4 33.54C34.39 30.95 34.39 28.37 34.4 25.78C34.4 23.34 35.95 21.78 38.39 21.77C40.52 21.76 42.65 21.77 44.78 21.77L44.78 21.77ZM37.59 29.34C38.3 28.76 38.85 28.28 39.44 27.83C40.88 26.74 42.68 26.76 44.1 27.87C44.6 28.27 45.11 28.65 45.56 29.11C46.14 29.71 46.61 29.63 47.18 29.09C48.43 27.9 49.87 27.68 51.46 28.35C51.57 28.4 51.69 28.43 51.9 28.49C51.9 27.5 51.9 26.57 51.9 25.64C51.89 25.12 51.59 24.96 51.11 24.96C46.88 24.97 42.64 24.97 38.41 24.96C37.83 24.96 37.59 25.21 37.6 25.78C37.61 26.9 37.6 28.02 37.6 29.34L37.59 29.34ZM44.71 34.36C46.79 34.36 48.87 34.38 50.94 34.34C51.25 34.33 51.8 34.08 51.81 33.91C51.86 33.3 52.23 32.59 51.5 32.09C50.43 31.37 49.57 31.27 48.9 31.81C47.27 33.14 45.43 33.14 43.81 31.81C43.35 31.44 42.89 31.08 42.47 30.67C41.98 30.19 41.57 30.16 41.04 30.64C40.11 31.48 39.11 32.24 38.17 33.07C37.93 33.28 37.81 33.64 37.63 33.93C37.97 34.07 38.3 34.33 38.64 34.34C40.67 34.38 42.69 34.36 44.71 34.36L44.71 34.36Z" fill="#000000" fill-opacity="1.000000" fill-rule="nonzero"/>
		<path id="Vector" d="M44.74 55.3C42.64 55.3 40.53 55.31 38.43 55.3C35.93 55.29 34.4 53.75 34.4 51.25C34.39 48.66 34.39 46.08 34.4 43.49C34.4 41.14 35.94 39.55 38.28 39.54C42.59 39.51 46.91 39.51 51.23 39.54C53.5 39.55 55.05 41.07 55.08 43.34C55.12 46.06 55.12 48.79 55.08 51.51C55.05 53.78 53.5 55.28 51.21 55.3C49.05 55.32 46.9 55.3 44.74 55.31L44.74 55.3ZM49.75 52.1C50.18 52.1 50.5 52.1 50.82 52.1C51.82 52.09 51.9 52.02 51.9 50.99C51.9 48.56 51.88 46.13 51.91 43.7C51.91 42.98 51.65 42.71 50.92 42.72C46.82 42.74 42.71 42.74 38.61 42.72C37.85 42.71 37.57 42.98 37.58 43.75C37.61 45.96 37.59 48.17 37.59 50.39C37.59 52.2 37.62 52.22 39.43 52.09C39.5 52.08 39.58 52.05 39.73 52C39.79 50.31 39.5 48.53 40.85 47.11C42.22 45.67 43.96 45.77 45.69 45.81C46.72 45.84 47.61 46.2 48.39 46.88C49.99 48.27 49.75 50.17 49.75 52.1ZM46.55 52.07C46.55 51.31 46.57 50.63 46.54 49.94C46.52 49.33 46.13 48.96 45.56 49.03C44.69 49.15 43.48 48.45 43.04 49.71C42.8 50.41 43 51.26 43 52.07L46.55 52.07L46.55 52.07Z" fill="#000000" fill-opacity="1.000000" fill-rule="nonzero"/>
		<path id="Vector" d="M39.11 18.82C34.45 18.82 29.79 18.83 25.12 18.82C23.9 18.82 23.21 18.26 23.17 17.29C23.15 16.45 23.68 15.79 24.51 15.67C24.82 15.62 25.15 15.62 25.47 15.62C34.58 15.62 43.7 15.62 52.81 15.62C53.13 15.62 53.46 15.62 53.77 15.67C54.53 15.79 55.05 16.39 55.08 17.15C55.11 17.96 54.61 18.62 53.82 18.76C53.49 18.82 53.14 18.82 52.79 18.82C48.23 18.83 43.67 18.82 39.11 18.82L39.11 18.82Z" fill="#FD6F00" fill-opacity="1.000000" fill-rule="nonzero"/>
		<path id="Vector" d="M16.77 17.22C16.77 16.33 17.45 15.65 18.33 15.64C19.21 15.63 19.93 16.32 19.95 17.18C19.98 18.06 19.23 18.82 18.33 18.81C17.46 18.8 16.77 18.1 16.77 17.22L16.77 17.22Z" fill="#FD6F00" fill-opacity="1.000000" fill-rule="nonzero"/>
		<path id="Vector" d="M53.05 4.15C53.42 4.15 53.8 4.12 54.17 4.15C54.96 4.22 55.55 4.84 55.61 5.61C55.67 6.35 55.21 7.12 54.46 7.21C53.49 7.33 52.49 7.34 51.53 7.22C50.73 7.13 50.3 6.37 50.37 5.55C50.44 4.78 51.03 4.21 51.85 4.15C52.25 4.12 52.65 4.14 53.05 4.14L53.05 4.15L53.05 4.15Z" fill="#FD6F00" fill-opacity="1.000000" fill-rule="nonzero"/>
		<path id="Vector" d="M24.21 35.06C23.59 35.06 22.98 35.09 22.37 35.06C21.47 35.01 20.81 34.31 20.81 33.46C20.82 32.61 21.48 31.9 22.39 31.88C23.63 31.84 24.88 31.84 26.13 31.88C27.05 31.91 27.68 32.6 27.68 33.47C27.67 34.34 27.03 35.01 26.12 35.06C25.48 35.09 24.84 35.06 24.21 35.06L24.21 35.06Z" fill="#000000" fill-opacity="1.000000" fill-rule="nonzero"/>
		<path id="Vector" d="M24.31 42.6C24.87 42.6 25.43 42.59 25.98 42.6C27.01 42.63 27.69 43.29 27.68 44.22C27.67 45.11 27 45.77 26.02 45.79C24.83 45.81 23.63 45.82 22.44 45.79C21.49 45.77 20.8 45.05 20.81 44.18C20.82 43.3 21.52 42.65 22.48 42.6C22.53 42.6 22.58 42.6 22.64 42.6C23.2 42.6 23.75 42.6 24.31 42.6L24.31 42.6Z" fill="#000000" fill-opacity="1.000000" fill-rule="nonzero"/>
		<path id="Vector" d="M24.3 26.52C24.91 26.52 25.53 26.49 26.14 26.53C27.04 26.58 27.65 27.21 27.68 28.05C27.7 28.9 27.13 29.62 26.23 29.66C24.93 29.73 23.62 29.73 22.32 29.67C21.39 29.63 20.77 28.89 20.81 28.03C20.85 27.2 21.48 26.59 22.38 26.52C22.44 26.52 22.49 26.51 22.54 26.51C23.13 26.51 23.72 26.51 24.3 26.51C24.3 26.52 24.3 26.52 24.3 26.52Z" fill="#000000" fill-opacity="1.000000" fill-rule="nonzero"/>
		<path id="Vector" d="M24.21 40.42C23.59 40.42 22.98 40.46 22.37 40.41C21.42 40.34 20.8 39.67 20.81 38.81C20.82 37.95 21.47 37.28 22.41 37.26C23.64 37.22 24.87 37.22 26.09 37.26C27.04 37.28 27.67 37.95 27.68 38.82C27.69 39.67 27.11 40.29 26.2 40.41C26.12 40.42 26.05 40.44 25.96 40.44C25.38 40.44 24.79 40.44 24.21 40.44C24.21 40.43 24.21 40.43 24.21 40.42Z" fill="#000000" fill-opacity="1.000000" fill-rule="nonzero"/>
		<path id="Vector" d="M24.28 47.98C24.89 47.98 25.51 47.95 26.12 47.99C27.02 48.04 27.64 48.65 27.67 49.49C27.71 50.37 27.12 51.09 26.17 51.13C24.9 51.19 23.62 51.19 22.34 51.13C21.4 51.09 20.78 50.37 20.81 49.51C20.84 48.65 21.49 48.02 22.44 47.98C23.05 47.96 23.67 47.98 24.28 47.98L24.28 47.98Z" fill="#000000" fill-opacity="1.000000" fill-rule="nonzero"/>
	</g>
</svg>
