<svg width="82.995720" height="70.998779" viewBox="0 0 82.9957 70.9988" fill="none" xmlns="http://www.w3.org/2000/svg" xmlns:xlink="http://www.w3.org/1999/xlink">
	<desc>
			Created with Pixso.
	</desc>
	<defs/>
	<path id="Vector" d="M82.49 7.32L82.49 63.67C82.45 63.78 82.38 63.87 82.36 63.98C81.54 68.03 78.71 70.47 74.79 70.49C73.38 70.5 71.96 70.49 70.55 70.49C49.81 70.49 29.07 70.5 8.33 70.49C3.76 70.49 0.5 67.16 0.5 62.44C0.49 44.47 0.49 26.51 0.51 8.55C0.51 7.63 0.66 6.68 0.93 5.81C1.98 2.47 4.77 0.5 8.33 0.5C30.43 0.5 52.54 0.5 74.63 0.5C74.85 0.5 75.06 0.5 75.27 0.5C78.22 0.66 80.38 2.16 81.71 4.93C82.06 5.67 82.23 6.52 82.49 7.31L82.49 7.32ZM15.13 67.06C15.13 63.69 15.13 60.41 15.13 57.13C15.13 54.55 15.11 51.98 15.14 49.41C15.16 46.89 16.65 45.34 19.01 45.33C20.74 45.32 22.48 45.33 24.21 45.33C26.78 45.33 28.21 46.85 28.22 49.59C28.22 55.08 28.22 60.56 28.22 66.05C28.22 66.38 28.22 66.71 28.22 67.05L33.01 67.05C33.01 66.7 33.01 66.4 33.01 66.1C33.01 63.21 33.01 60.32 33.02 57.44C33.02 57.02 33.04 56.59 33.11 56.18C33.33 54.74 34.17 53.76 35.29 52.99C33.92 49.5 32.57 46.06 31.22 42.62C29.99 39.47 30.42 37.41 32.73 35.06C35.6 32.13 38.31 29.05 40.09 25.2C40.37 24.6 40.85 24.28 41.51 24.28C42.19 24.28 42.65 24.63 42.98 25.25C43.53 26.28 43.99 27.4 44.7 28.3C46.63 30.74 48.63 33.13 50.69 35.45C52.39 37.36 52.91 39.63 51.98 42.07C51.51 43.33 51.01 44.58 50.52 45.83C49.59 48.23 48.66 50.63 47.72 53.04C49.46 54.14 50.02 55.79 49.98 57.81C49.92 60.58 49.97 63.35 49.97 66.13L49.97 67.03L54.45 67.03C54.45 66.66 54.45 66.35 54.45 66.04C54.45 61.96 54.41 57.89 54.49 53.82C54.51 52.97 54.77 51.96 55.27 51.34C55.88 50.58 56.01 49.86 55.98 48.97C55.93 47.19 56.67 45.89 58.16 45.05C58.38 44.93 58.59 44.57 58.6 44.31C58.64 43.18 58.61 42.05 58.62 40.92C58.63 39.79 59.25 39.07 60.18 39.06C61.14 39.04 61.8 39.78 61.82 40.94C61.83 42.04 61.84 43.14 61.81 44.25C61.8 44.7 61.93 44.94 62.33 45.14C63.36 45.63 64.07 46.49 64.3 47.66C64.45 48.39 64.38 49.18 64.44 49.94C64.47 50.22 64.54 50.57 64.72 50.75C65.66 51.66 66 52.78 65.99 54.09C65.97 58.11 65.98 62.13 65.98 66.14C65.98 66.44 65.98 66.74 65.98 67.1C68.94 67.1 71.79 67.11 74.65 67.1C77.55 67.1 79.29 65.27 79.29 62.21C79.29 49.53 79.29 36.86 79.29 24.19C79.29 23.89 79.29 23.59 79.29 23.3L3.7 23.3C3.7 23.64 3.7 23.94 3.7 24.25C3.7 36.86 3.7 49.48 3.7 62.1C3.7 62.38 3.69 62.66 3.71 62.94C3.84 64.99 5.38 66.92 7.28 67.02C9.85 67.17 12.44 67.06 15.13 67.06L15.13 67.06ZM3.71 19.79L79.28 19.79C79.28 15.82 79.28 11.92 79.27 8.02C79.27 7.88 79.25 7.74 79.22 7.6C78.79 5.26 77.1 3.89 74.64 3.89C52.54 3.89 30.44 3.89 8.34 3.89C8.12 3.89 7.91 3.89 7.7 3.9C5.61 4 3.77 5.8 3.73 8.02C3.65 11.92 3.71 15.82 3.71 19.79L3.71 19.79ZM39.89 52.44C39.89 49.7 39.88 46.99 39.89 44.28C39.9 43.12 40.55 42.39 41.52 42.41C42.46 42.43 43.08 43.14 43.09 44.26C43.1 46.3 43.09 48.33 43.09 50.37C43.09 51.07 43.09 51.77 43.09 52.59C43.69 52.39 44.33 52.9 44.67 52.02C46.11 48.25 47.58 44.5 49.04 40.74C49.46 39.65 49.24 38.7 48.44 37.89C47.76 37.2 47.06 36.54 46.45 35.8C44.76 33.77 43.11 31.71 41.43 29.64C41.42 29.65 41.32 29.74 41.25 29.85C39.39 32.77 37.14 35.33 34.72 37.74C33.66 38.79 33.5 39.58 34.06 41C35.44 44.52 36.85 48.02 38.18 51.56C38.52 52.47 38.97 52.74 39.89 52.45L39.89 52.44ZM46.77 67.07L46.77 66.24C46.77 63.33 46.77 60.42 46.77 57.51C46.77 56.25 46.5 55.94 45.32 55.94C42.76 55.93 40.2 55.93 37.65 55.94C36.51 55.94 36.22 56.25 36.21 57.44C36.21 60.41 36.21 63.37 36.21 66.34C36.21 66.58 36.24 66.82 36.26 67.08L46.77 67.08L46.77 67.07ZM25.01 67.06C25.01 66.06 25.01 65.16 25.01 64.26C25.01 59.4 25.01 54.53 25.01 49.67C25.01 49.17 25.05 48.7 24.35 48.71C22.56 48.74 20.77 48.7 18.99 48.74C18.77 48.75 18.4 49.07 18.37 49.28C18.29 49.91 18.34 50.56 18.34 51.25C19.1 51.25 19.74 51.24 20.37 51.25C21.48 51.27 22.2 51.92 22.22 52.91C22.23 53.93 21.49 54.62 20.34 54.64C19.7 54.65 19.07 54.64 18.4 54.64L18.4 56.73C19.16 56.73 19.86 56.71 20.55 56.74C21.53 56.78 22.21 57.49 22.22 58.42C22.22 59.39 21.52 60.1 20.49 60.12C19.8 60.14 19.12 60.12 18.4 60.12L18.4 62.25C19.1 62.25 19.74 62.24 20.38 62.26C21.5 62.28 22.21 62.93 22.22 63.92C22.23 64.94 21.5 65.62 20.34 65.64C19.7 65.65 19.07 65.64 18.39 65.64L18.39 67.05L25.01 67.05L25.01 67.06ZM62.78 67.06C62.78 62.6 62.78 58.25 62.79 53.89C62.79 53.37 62.53 53.3 62.13 53.3C60.9 53.31 59.67 53.34 58.45 53.29C57.79 53.26 57.64 53.52 57.65 54.17C57.67 58.24 57.66 62.31 57.66 66.38C57.66 66.6 57.69 66.82 57.71 67.06L62.78 67.06ZM61.32 49.87C61.2 49.28 61.26 48.49 60.96 48.3C60.57 48.05 59.79 48.07 59.41 48.33C59.13 48.53 59.22 49.32 59.14 49.87L61.32 49.87Z" fill="#FD6F00" fill-opacity="1.000000" fill-rule="nonzero"/>
	<path id="Vector" d="M82.89 64Q82.93 63.92 82.95 63.87L82.99 63.77L82.99 7.2L82.95 7.13Q82.88 6.89 82.75 6.42Q82.42 5.26 82.16 4.72Q81.01 2.31 79.1 1.13Q77.47 0.12 75.3 0Q75.07 0 74.63 0L8.33 0Q5.15 0 3.15 1.53Q1.3 2.94 0.46 5.66Q0.16 6.61 0.06 7.58Q0.01 8.06 0.01 8.54L0.01 8.89L0 62.44Q0 65.01 1.1 66.95Q1.61 67.83 2.34 68.59Q3.2 69.47 4.24 70.03Q6.03 70.99 8.33 70.99L70.55 70.99L74.62 70.99L74.8 70.99Q77.91 70.97 79.87 69.46Q82.11 67.74 82.85 64.08Q82.85 64.07 82.89 64ZM82.49 7.31C82.23 6.52 82.06 5.67 81.71 4.93C80.38 2.16 78.22 0.66 75.27 0.5C75.06 0.5 74.85 0.5 74.63 0.5L8.33 0.5C4.77 0.5 1.98 2.47 0.93 5.81C0.66 6.68 0.51 7.63 0.51 8.55C0.49 26.51 0.49 44.47 0.5 62.44C0.5 67.16 3.76 70.49 8.33 70.49C22.16 70.49 35.98 70.49 49.81 70.49C56.72 70.49 63.64 70.49 70.55 70.49C71.02 70.49 71.49 70.49 71.96 70.49C72.91 70.5 73.85 70.5 74.79 70.49C78.71 70.47 81.54 68.03 82.36 63.98C82.38 63.87 82.45 63.78 82.49 63.67L82.49 7.32L82.49 7.31ZM4.21 19.79L3.71 19.79C3.71 19.62 3.71 19.46 3.71 19.29C3.71 18.28 3.7 17.28 3.7 16.28C3.69 13.51 3.67 10.76 3.73 8.02C3.77 5.8 5.61 4 7.7 3.9C7.91 3.89 8.12 3.89 8.34 3.89L74.64 3.89C77.1 3.89 78.79 5.26 79.22 7.6C79.25 7.74 79.27 7.88 79.27 8.02C79.27 11.75 79.28 15.49 79.28 19.29L79.28 19.79L4.21 19.79ZM4.21 19.29L78.77 19.29L78.77 8.02Q78.77 7.93 78.73 7.71L78.73 7.69Q78.44 6.11 77.49 5.29Q76.45 4.39 74.64 4.39L8.34 4.39Q7.92 4.39 7.73 4.4Q6.03 4.48 5.15 5.37Q4.26 6.28 4.23 8.03Q4.17 10.77 4.2 16.27Q4.2 18.16 4.21 19.29ZM15.13 66.56L15.13 57.13C15.13 56.37 15.13 55.6 15.13 54.84L15.13 54.84C15.13 53.03 15.12 51.22 15.14 49.41C15.16 46.89 16.65 45.34 19.01 45.33C20.74 45.32 22.48 45.33 24.21 45.33C26.78 45.33 28.21 46.85 28.22 49.59C28.22 53.24 28.22 56.9 28.22 60.56L28.22 60.56C28.22 62.39 28.22 64.22 28.22 66.05L28.22 67.05L33.01 67.05L33.01 66.1C33.01 65.37 33.01 64.65 33.01 63.93L33.01 63.93C33.01 61.77 33.01 59.6 33.02 57.44C33.02 57.02 33.04 56.59 33.11 56.18C33.33 54.74 34.17 53.76 35.29 52.99C33.92 49.5 32.57 46.06 31.22 42.62C29.99 39.47 30.42 37.41 32.73 35.06C35.6 32.13 38.31 29.05 40.09 25.2C40.37 24.6 40.85 24.28 41.51 24.28C42.19 24.28 42.65 24.63 42.98 25.25C43.53 26.28 43.99 27.4 44.7 28.3C46.63 30.74 48.63 33.13 50.69 35.45C52.39 37.36 52.91 39.63 51.98 42.07C51.51 43.33 51.01 44.58 50.52 45.83C49.59 48.23 48.66 50.63 47.72 53.04C49.46 54.14 50.02 55.79 49.98 57.81C49.94 59.75 49.95 61.7 49.96 63.64C49.96 64.47 49.97 65.3 49.97 66.13L49.97 66.53L49.97 67.03L54.45 67.03L54.45 66.04C54.45 64.97 54.45 63.89 54.45 62.82L54.45 62.82C54.44 59.82 54.43 56.82 54.49 53.82C54.51 52.97 54.77 51.96 55.27 51.34C55.88 50.58 56.01 49.86 55.98 48.97C55.93 47.19 56.67 45.89 58.16 45.05C58.38 44.93 58.59 44.57 58.6 44.31C58.63 43.6 58.62 42.89 58.62 42.18L58.62 42.17C58.62 41.75 58.62 41.34 58.62 40.92C58.63 39.79 59.25 39.07 60.18 39.06C61.14 39.04 61.8 39.78 61.82 40.94C61.83 42.04 61.84 43.14 61.81 44.25C61.8 44.7 61.93 44.94 62.33 45.14C63.36 45.63 64.07 46.49 64.3 47.66C64.39 48.11 64.4 48.57 64.41 49.04C64.41 49.34 64.42 49.64 64.44 49.94C64.47 50.22 64.54 50.57 64.72 50.75C65.66 51.66 66 52.78 65.99 54.09C65.98 56.94 65.98 59.78 65.98 62.63L65.98 62.63C65.98 63.8 65.98 64.97 65.98 66.14L65.98 67.1L66.48 67.1C67.31 67.1 68.12 67.1 68.93 67.1C70.86 67.1 72.75 67.11 74.65 67.1C77.55 67.1 79.29 65.27 79.29 62.21C79.29 53.76 79.29 45.31 79.29 36.86C79.29 32.64 79.29 28.41 79.29 24.19L79.29 23.3L3.7 23.3L3.7 23.8L3.7 62.1C3.7 62.15 3.7 62.21 3.7 62.27C3.69 62.49 3.69 62.72 3.71 62.94C3.84 64.99 5.38 66.92 7.28 67.02C9.07 67.12 10.88 67.1 12.72 67.08C13.51 67.07 14.32 67.06 15.13 67.06L15.13 66.56ZM14.63 66.56L14.63 57.13L14.63 53.28L14.64 49.4Q14.66 47 15.87 45.86Q16.96 44.84 19 44.83L24.21 44.83Q26.34 44.83 27.46 45.9Q28.72 47.08 28.72 49.59L28.72 57.83L28.72 66.05L28.72 66.55L32.51 66.55L32.51 66.1L32.52 57.44Q32.52 56.73 32.61 56.1Q32.69 55.6 32.87 55.14Q33.37 53.82 34.69 52.81L30.76 42.8Q29.83 40.44 30.28 38.38Q30.7 36.41 32.37 34.71Q37.61 29.37 39.64 24.99Q39.93 24.35 40.44 24.05Q40.77 23.85 41.18 23.8L4.2 23.8L4.2 62.1Q4.2 62.15 4.2 62.27Q4.19 62.7 4.21 62.91Q4.35 65 5.45 65.88Q6.17 66.46 7.3 66.52Q9.08 66.62 12.71 66.58Q13.88 66.56 14.63 66.56ZM41.82 23.8Q42.14 23.84 42.41 23.97Q43.03 24.27 43.42 25.02Q43.57 25.3 43.86 25.87Q44.6 27.37 45.09 27.98Q48.09 31.77 51.06 35.12Q52.59 36.84 52.89 38.75Q53.14 40.43 52.45 42.25Q52.14 43.08 51.49 44.72Q51.15 45.58 50.98 46.01L50.9 46.22L48.33 52.86Q48.96 53.32 49.41 53.92Q50.53 55.44 50.48 57.82Q50.44 59.76 50.46 63.64Q50.47 65.3 50.47 66.13L50.47 66.53L53.95 66.53L53.95 66.04Q53.95 64.97 53.95 62.82Q53.93 56.81 53.99 53.81Q54.02 52.11 54.86 51.04Q54.87 51.03 54.88 51.02Q54.96 50.93 55.02 50.83Q55.52 50.08 55.48 48.99Q55.44 47.45 56.1 46.33Q56.71 45.29 57.92 44.61Q57.97 44.58 58.01 44.54Q58.09 44.45 58.1 44.29Q58.13 43.59 58.12 42.18Q58.12 41.33 58.12 40.91Q58.14 39.59 58.8 39.01Q59.3 38.57 60.17 38.56Q60.71 38.55 61.13 38.76Q61.47 38.92 61.73 39.23Q61.8 39.31 61.87 39.4Q62.3 40.01 62.32 40.93Q62.35 42.95 62.31 44.26Q62.3 44.44 62.39 44.56Q62.45 44.64 62.55 44.69Q63.48 45.13 64.05 45.87Q64.59 46.58 64.79 47.56Q64.89 48.05 64.91 49.03Q64.92 49.61 64.94 49.89Q64.98 50.3 65.07 50.39Q65.44 50.75 65.72 51.17Q66.5 52.37 66.49 54.1L66.48 60.1L66.48 66.14L66.48 66.6L74.48 66.6L74.64 66.6Q76.59 66.6 77.63 65.62Q78.79 64.53 78.79 62.21L78.79 23.8L41.82 23.8ZM39.89 52.44C39.89 51.69 39.89 50.95 39.89 50.2L39.89 50.2C39.89 48.22 39.89 46.25 39.89 44.28C39.9 43.12 40.55 42.39 41.52 42.41C42.46 42.43 43.08 43.14 43.09 44.26C43.1 45.72 43.1 47.17 43.09 48.62C43.09 49.21 43.09 49.79 43.09 50.37L43.09 52.59C43.26 52.53 43.43 52.53 43.59 52.54C43.63 52.55 43.67 52.55 43.7 52.55C44.09 52.58 44.44 52.6 44.67 52.02C46.11 48.25 47.58 44.5 49.04 40.74C49.46 39.65 49.24 38.7 48.44 37.89C47.76 37.2 47.06 36.54 46.45 35.8C44.87 33.9 43.32 31.97 41.75 30.03C41.64 29.9 41.53 29.77 41.43 29.64C41.42 29.65 41.32 29.74 41.25 29.85C41.21 29.92 41.17 29.98 41.12 30.05C39.28 32.88 37.08 35.38 34.72 37.74C33.66 38.79 33.5 39.58 34.06 41C35.44 44.52 36.85 48.02 38.18 51.56C38.45 52.29 38.79 52.61 39.39 52.56C39.54 52.54 39.71 52.51 39.89 52.45L39.89 52.44L39.89 52.44ZM39.39 52.03L39.39 44.28L39.39 44.28Q39.4 43.34 39.84 42.73Q39.9 42.65 39.97 42.57Q40.21 42.3 40.51 42.14Q40.95 41.9 41.53 41.91Q42.42 41.93 42.93 42.37Q43.58 42.95 43.59 44.26L43.6 47.32L43.59 50.37L43.59 52.04Q43.66 52.05 43.74 52.05Q44.01 52.07 44.13 51.95Q44.17 51.9 44.2 51.84L45.26 49.07L48.57 40.56Q48.82 39.9 48.71 39.33Q48.59 38.74 48.08 38.24Q47.94 38.09 47.64 37.79Q46.56 36.71 46.06 36.12Q44.87 34.68 42.52 31.77Q41.88 30.99 41.45 30.46Q39.04 34.13 35.08 38.09Q34.51 38.66 34.36 39.31Q34.21 40.01 34.52 40.81Q34.92 41.84 35.74 43.9Q37.71 48.88 38.65 51.39Q38.82 51.84 39.12 51.97Q39.25 52.02 39.39 52.03ZM61.25 49.37C61.21 48.9 61.18 48.44 60.96 48.3C60.57 48.05 59.79 48.07 59.41 48.33C59.22 48.47 59.2 48.89 59.18 49.31C59.18 49.33 59.18 49.35 59.18 49.37C59.17 49.54 59.16 49.71 59.14 49.87L61.32 49.87C61.29 49.71 61.27 49.54 61.25 49.37ZM60.75 49.37Q60.75 49.34 60.74 49.32Q60.71 48.92 60.68 48.78L60.69 48.72L60.69 48.72Q60.45 48.56 60.2 48.56Q59.95 48.57 59.7 48.74L59.72 48.8Q59.7 48.94 59.68 49.33Q59.68 49.35 59.68 49.37L60.75 49.37ZM25.01 66.55L25.01 49.67C25.01 49.65 25.01 49.62 25.01 49.59C25.02 49.12 25.02 48.7 24.35 48.71C23.58 48.72 22.82 48.72 22.05 48.72L22.05 48.72C21.03 48.72 20.01 48.72 18.99 48.74C18.77 48.75 18.4 49.07 18.37 49.28C18.31 49.73 18.32 50.19 18.33 50.67C18.34 50.86 18.34 51.05 18.34 51.25C18.51 51.25 18.68 51.25 18.84 51.25C18.92 51.25 19.01 51.25 19.09 51.25L19.09 51.25C19.54 51.25 19.96 51.24 20.37 51.25C21.48 51.27 22.2 51.92 22.22 52.91C22.23 53.93 21.49 54.62 20.34 54.64C19.92 54.64 19.5 54.64 19.07 54.64C19.01 54.64 18.96 54.64 18.9 54.64C18.74 54.64 18.57 54.64 18.4 54.64L18.4 56.73L18.42 56.73C18.58 56.73 18.74 56.73 18.9 56.73C18.97 56.73 19.03 56.73 19.1 56.73L19.1 56.73C19.6 56.72 20.07 56.72 20.55 56.74C21.53 56.78 22.21 57.49 22.22 58.42C22.22 59.39 21.52 60.1 20.49 60.12C20.02 60.13 19.56 60.13 19.08 60.12L19.08 60.12C19.02 60.12 18.96 60.12 18.9 60.12C18.74 60.12 18.57 60.12 18.4 60.12L18.4 62.25L18.42 62.25C18.59 62.25 18.74 62.25 18.9 62.25C18.95 62.25 19 62.25 19.06 62.25C19.51 62.25 19.94 62.25 20.38 62.26C21.5 62.28 22.21 62.93 22.22 63.92C22.23 64.94 21.5 65.62 20.34 65.64C19.92 65.65 19.5 65.65 19.07 65.65L19.07 65.65C19.01 65.64 18.95 65.64 18.89 65.64C18.73 65.64 18.56 65.64 18.39 65.64L18.39 67.05L25.01 67.05L25.01 66.55ZM24.51 66.55L24.51 49.67Q24.51 49.65 24.51 49.59Q24.52 49.26 24.49 49.2L24.36 49.21Q23.59 49.22 22.05 49.22Q20.02 49.22 19 49.24Q18.93 49.25 18.9 49.28Q18.87 49.31 18.87 49.35Q18.81 49.76 18.83 50.65Q18.83 50.7 18.83 50.75Q18.95 50.75 19.09 50.75Q19.96 50.74 20.38 50.75Q21.64 50.77 22.22 51.41Q22.7 51.94 22.72 52.9Q22.73 53.9 22.24 54.46Q21.65 55.12 20.35 55.14Q19.92 55.14 19.06 55.14Q18.98 55.14 18.9 55.14L18.9 56.23Q18.99 56.23 19.09 56.23Q20.08 56.22 20.57 56.24Q21.65 56.29 22.19 56.85Q22.71 57.4 22.72 58.42Q22.72 59.45 22.22 60Q21.66 60.59 20.5 60.62Q20.03 60.63 19.08 60.62Q18.98 60.62 18.9 60.62L18.9 61.75Q18.98 61.75 19.05 61.75Q19.95 61.75 20.39 61.76Q21.65 61.78 22.23 62.43Q22.71 62.96 22.72 63.92Q22.73 64.9 22.25 65.45Q21.66 66.12 20.35 66.14Q19.92 66.15 19.06 66.15Q18.97 66.14 18.89 66.14L18.89 66.55L24.51 66.55ZM62.78 66.56C62.78 65.73 62.78 64.91 62.78 64.09L62.78 64.08C62.78 60.65 62.78 57.27 62.79 53.89C62.79 53.37 62.53 53.3 62.13 53.3C61.93 53.3 61.74 53.3 61.54 53.31C60.51 53.32 59.48 53.33 58.45 53.29C57.79 53.26 57.64 53.52 57.65 54.17C57.66 56.94 57.66 59.71 57.66 62.48L57.66 62.48C57.66 63.78 57.66 65.08 57.66 66.38C57.66 66.6 57.69 66.82 57.71 67.06L62.78 67.06L62.78 66.56L62.78 66.56ZM62.28 66.56L62.29 53.9L62.29 53.89L62.31 53.8Q62.31 53.8 62.13 53.8Q61.94 53.8 61.55 53.81Q59.47 53.83 58.42 53.79Q58.19 53.78 58.18 53.79Q58.14 53.84 58.15 54.16L58.16 60.27L58.16 66.38Q58.16 66.45 58.17 66.56L62.28 66.56ZM46.77 67.07L46.77 57.51C46.77 56.25 46.5 55.94 45.32 55.94C42.76 55.93 40.2 55.93 37.65 55.94C36.51 55.94 36.22 56.25 36.21 57.44C36.21 60.41 36.21 63.37 36.21 66.33L36.21 66.34C36.21 66.58 36.24 66.82 36.26 67.08L46.77 67.08L46.77 67.07ZM46.27 66.58L46.27 57.51Q46.27 56.91 45.97 56.65Q45.74 56.44 45.32 56.44L41.18 56.43L37.65 56.44Q37.22 56.44 36.98 56.66Q36.72 56.91 36.71 57.44L36.71 61.9L36.71 66.34Q36.71 66.43 36.72 66.58L46.27 66.58Z" fill="#FD6F00" fill-opacity="1.000000" fill-rule="evenodd"/>
	<path id="Vector" d="M24.92 7.26C27.6 7.26 29.77 9.55 29.78 12.37C29.78 15.18 27.59 17.5 24.93 17.51C22.27 17.51 20.08 15.2 20.08 12.39C20.07 9.56 22.24 7.27 24.92 7.26ZM24.94 10.66C24.05 10.66 23.31 11.4 23.29 12.34C23.26 13.3 24.04 14.12 24.95 14.11C25.83 14.09 26.57 13.3 26.57 12.38C26.57 11.44 25.84 10.67 24.94 10.66L24.94 10.66Z" fill="#000000" fill-opacity="1.000000" fill-rule="nonzero"/>
	<path id="Vector" d="M16.7 12.4C16.69 15.25 14.53 17.51 11.85 17.5C9.18 17.49 7.04 15.2 7.05 12.35C7.05 9.51 9.21 7.25 11.9 7.26C14.59 7.28 16.71 9.55 16.7 12.4ZM10.25 12.36C10.24 13.32 10.95 14.1 11.85 14.11C12.77 14.12 13.48 13.37 13.49 12.4C13.5 11.42 12.81 10.68 11.89 10.67C10.97 10.66 10.26 11.39 10.25 12.36L10.25 12.36Z" fill="#000000" fill-opacity="1.000000" fill-rule="nonzero"/>
	<path id="Vector" d="M37.96 7.26C40.65 7.25 42.8 9.51 42.8 12.36C42.81 15.21 40.67 17.49 37.99 17.5C35.32 17.51 33.15 15.23 33.15 12.39C33.14 9.54 35.28 7.27 37.96 7.26ZM39.59 12.4C39.6 11.42 38.91 10.67 37.99 10.66C37.07 10.66 36.36 11.39 36.35 12.36C36.35 13.32 37.06 14.1 37.96 14.1C38.87 14.11 39.58 13.37 39.59 12.4L39.59 12.4Z" fill="#000000" fill-opacity="1.000000" fill-rule="nonzero"/>
	<path id="Vector" d="M41.45 40.21C40.6 40.19 39.89 39.4 39.9 38.49C39.91 37.54 40.65 36.79 41.57 36.84C42.44 36.88 43.12 37.65 43.09 38.57C43.05 39.47 42.3 40.23 41.45 40.21L41.45 40.21Z" fill="#FD6F00" fill-opacity="1.000000" fill-rule="nonzero"/>
</svg>
